<?xml version="1.0" encoding="UTF-8"?>
<svg width="300" height="300" viewBox="0 0 300 300" xmlns="http://www.w3.org/2000/svg">
  <!-- Teddy Bear Logo -->
  <g fill="#1D4D4F">
    <!-- Head -->
    <path d="M150,50 C190,50 230,90 230,140 C230,190 190,230 150,230 C110,230 70,190 70,140 C70,90 110,50 150,50 Z M150,60 C115,60 80,95 80,140 C80,185 115,220 150,220 C185,220 220,185 220,140 C220,95 185,60 150,60 Z" />
    
    <!-- Ears -->
    <circle cx="95" cy="90" r="25" />
    <circle cx="205" cy="90" r="25" />
    
    <!-- Eyes -->
    <circle cx="125" cy="120" r="8" />
    <circle cx="175" cy="120" r="8" />
    
    <!-- Nose -->
    <circle cx="150" cy="150" r="20" />
    
    <!-- Mouth/Smile in nose -->
    <path d="M150,145 C160,145 170,155 170,165 C170,175 160,185 150,185 C140,185 130,175 130,165 C130,155 140,145 150,145 Z M150,155 C145,155 140,160 140,165 C140,170 145,175 150,175 C155,175 160,170 160,165 C160,160 155,155 150,155 Z" fill="#1D4D4F" />
    
    <!-- Smile Line -->
    <path d="M150,165 L150,175 M140,165 L160,165" stroke="#FFFFFF" stroke-width="5" />
  </g>
</svg>