<?xml version="1.0" encoding="UTF-8"?>
<svg width="300" height="400" viewBox="0 0 300 400" xmlns="http://www.w3.org/2000/svg">
  <!-- Teddy Bear Logo with Text -->
  <g fill="#1D4D4F">
    <!-- Head -->
    <path d="M150,50 C190,50 230,90 230,140 C230,190 190,230 150,230 C110,230 70,190 70,140 C70,90 110,50 150,50 Z M150,60 C115,60 80,95 80,140 C80,185 115,220 150,220 C185,220 220,185 220,140 C220,95 185,60 150,60 Z" />
    
    <!-- Ears -->
    <circle cx="95" cy="90" r="25" />
    <circle cx="205" cy="90" r="25" />
    
    <!-- Eyes -->
    <circle cx="125" cy="120" r="8" />
    <circle cx="175" cy="120" r="8" />
    
    <!-- Nose -->
    <circle cx="150" cy="150" r="20" />
    
    <!-- Mouth/Smile in nose -->
    <path d="M150,145 C160,145 170,155 170,165 C170,175 160,185 150,185 C140,185 130,175 130,165 C130,155 140,145 150,145 Z M150,155 C145,155 140,160 140,165 C140,170 145,175 150,175 C155,175 160,170 160,165 C160,160 155,155 150,155 Z" fill="#1D4D4F" />
    
    <!-- Smile Line -->
    <path d="M150,165 L150,175 M140,165 L160,165" stroke="#FFFFFF" stroke-width="5" />
    
    <!-- Text "Dear" -->
    <path d="M80,280 Q80,260 90,260 L100,260 Q120,260 120,280 Q120,300 100,300 L90,300 L90,330 Q90,340 80,340 Q70,340 70,330 L70,270 Q70,260 80,260 Z M90,270 L90,290 L100,290 Q105,290 105,280 Q105,270 100,270 Z" />
    
    <!-- Text "Teddy" -->
    <path d="M135,260 L165,260 Q175,260 175,270 L175,275 Q175,285 165,285 Q175,285 175,295 L175,330 Q175,340 165,340 L135,340 Q125,340 125,330 L125,270 Q125,260 135,260 Z M140,275 L140,290 L160,290 L160,275 Z M140,305 L140,325 L160,325 L160,305 Z" />
    <path d="M200,260 L200,330 Q200,340 210,340 Q220,340 220,330 L220,260 Q220,250 210,250 Q200,250 200,260 Z" />
    <path d="M235,260 L235,330 Q235,340 245,340 Q255,340 255,330 L255,260 Q255,250 245,250 Q235,250 235,260 Z" />
    <path d="M270,340 L270,250 Q270,240 280,240 Q290,240 290,250 L290,340 Q290,350 280,350 Q270,350 270,340 Z M280,300 L270,310 Q265,315 265,320 Q265,325 270,330 L280,340" />
  </g>
</svg>